PathFileType	4	(X/Y/Z)	E:\3-PhD\Data\MocapData\ElaboratedData\012\pre\dynamicElaborations\Run_baselineA1\Run_baselineA1.trc
DataRate	CameraRate	NumFrames	NumMarkers	Units	OrigDataRate	OrigDataStartFrame	OrigNumFrames
200	200	5	56	mm	200	8.290000e+02	106
Frame#	Time	FHD			LBHD			RBHD			C7			T10			CLAV			LSHO			LUUPA			LMUPA			LDUPA			LLEP			LMEP			LRAD			LUL			LRFIN			RSHO			RUPA1			RMUPA			RDUPA			RLEP			RMEP			RRAD			RUL			RUFIN			LASI			RASI			USACR			LSACR			RSACR			LTHI1			LTHI2			LTHI3			LTHI4			LLFC			LTIB1			LTIB2			LTIB3			LTIB4			LHEE			LMT1			LMT5			LMT2			RTHI			RTHI2			RTHI3			RTHI4			RLFC			RTIB1			RTIB2			RTIB3			RTIB4			RLMAL			RHEE			RMT1			RMT2			RMT5		
		X1	Y1	Z1	X2	Y2	Z2	X3	Y3	Z3	X4	Y4	Z4	X5	Y5	Z5	X6	Y6	Z6	X7	Y7	Z7	X8	Y8	Z8	X9	Y9	Z9	X10	Y10	Z10	X11	Y11	Z11	X12	Y12	Z12	X13	Y13	Z13	X14	Y14	Z14	X15	Y15	Z15	X16	Y16	Z16	X17	Y17	Z17	X18	Y18	Z18	X19	Y19	Z19	X20	Y20	Z20	X21	Y21	Z21	X22	Y22	Z22	X23	Y23	Z23	X24	Y24	Z24	X25	Y25	Z25	X26	Y26	Z26	X27	Y27	Z27	X28	Y28	Z28	X29	Y29	Z29	X30	Y30	Z30	X31	Y31	Z31	X32	Y32	Z32	X33	Y33	Z33	X34	Y34	Z34	X35	Y35	Z35	X36	Y36	Z36	X37	Y37	Z37	X38	Y38	Z38	X39	Y39	Z39	X40	Y40	Z40	X41	Y41	Z41	X42	Y42	Z42	X43	Y43	Z43	X44	Y44	Z44	X45	Y45	Z45	X46	Y46	Z46	X47	Y47	Z47	X48	Y48	Z48	X49	Y49	Z49	X50	Y50	Z50	X51	Y51	Z51	X52	Y52	Z52	X53	Y53	Z53	X54	Y54	Z54	X55	Y55	Z55	X56	Y56	Z56	
908	4.535000	-1032.059546	1739.424035	334.027203	-1183.520480	1730.936507	224.589790	-1176.937698	1713.369560	375.963848	-1233.192772	1551.564527	309.087723	-1368.419169	1229.962125	339.155440	-1109.284625	1439.185674	283.571517	-1152.079526	1549.729446	139.496318	-1217.999309	1359.974620	9.998010	-1183.183605	1326.509667	18.413390	-1228.469919	1292.489880	-4.105090	-1226.046366	1202.638570	-19.803198	-1267.533100	1185.935006	54.075456	-1026.847438	1040.563270	86.102210	-1046.378007	1002.402106	21.776776	-953.734852	997.727864	86.686110	-1121.120895	1489.038212	462.944519	-1287.522023	1334.370343	565.733343	-1260.783420	1292.135871	566.922660	-1314.620530	1271.501893	577.355198	-1343.593807	1206.095148	589.403662	-1373.314694	1192.736131	510.332365	-1190.038229	979.266363	519.713241	-1222.813446	943.097683	582.239583	-1141.535460	904.045426	520.239927	-1304.320853	1007.854234	176.715174	-1263.569860	967.129308	403.282626	-1426.359462	1105.355673	343.021716	-1452.079301	1082.354038	317.015316	-1437.012951	1073.492090	371.297709	-1340.248862	767.887937	106.301132	-1270.344130	716.425088	104.951160	-1228.973494	736.971355	113.518021	-1272.294768	657.082112	109.445452	-1212.176761	510.386655	120.647513	-1230.362322	326.486593	194.314869	-1264.876277	290.754188	125.042620	-1239.799257	278.235668	161.863508	-1274.655393	208.822663	195.103339	-1426.566736	50.409750	208.872161	-1214.887710	51.819771	233.166175	-1239.331406	37.263600	132.289160	-1201.828724	52.239045	179.180629	-1323.283597	659.659178	452.275952	-1275.817971	611.040242	441.749507	-1244.867854	615.264838	428.848495	-1296.545557	531.030524	424.533020	-1309.043144	440.738600	391.672798	-1420.707785	405.638067	341.639247	-1489.162252	478.259035	385.449012	-1498.745708	439.751578	362.352243	-1545.605203	442.139760	332.160633	-1700.186486	537.248083	336.605742	-1735.437896	593.831918	286.637664	-1765.893508	371.143696	263.548864	-1757.985694	369.783799	307.988786	-1776.182349	410.952400	360.164395	
909	4.540000	-1005.230559	1738.672826	333.360168	-1155.912455	1729.884105	222.857514	-1150.474656	1712.273296	374.212248	-1205.616467	1549.882977	306.404447	-1339.279095	1227.383919	337.783951	-1080.484620	1437.258942	283.759319	-1121.844689	1547.988824	138.761617	-1180.528221	1355.596406	10.762821	-1145.042349	1323.106558	20.669142	-1188.726299	1287.616129	-2.699751	-1183.391257	1197.383028	-16.795064	-1226.915903	1180.231288	56.009015	-982.672036	1044.678079	98.913931	-998.371508	1004.503009	34.759470	-907.826614	1004.997057	102.498799	-1096.413124	1488.419501	463.425089	-1268.127790	1337.532461	563.093745	-1242.046191	1294.977291	566.778079	-1296.490305	1275.443443	575.787824	-1327.248381	1211.014287	588.549124	-1354.050760	1195.759518	508.968888	-1179.679173	976.443775	533.059689	-1215.849550	943.771122	595.665681	-1134.478457	899.132923	537.295339	-1276.868136	1005.814304	174.526083	-1233.898811	964.656973	400.905051	-1396.936961	1104.269216	342.531395	-1422.860456	1081.535452	316.541130	-1407.479422	1072.385133	370.708094	-1317.983908	765.506970	105.193858	-1249.482134	712.480175	102.961436	-1207.746953	731.977538	111.015255	-1252.901673	653.112101	107.710224	-1195.669157	504.962067	118.576211	-1220.448910	321.784324	193.148637	-1256.620345	287.224961	124.044336	-1232.007781	273.898400	160.995493	-1269.632888	205.963044	194.490522	-1426.619841	50.930916	209.324779	-1214.997000	51.450815	233.318956	-1239.534225	37.138209	132.185483	-1201.940616	51.579339	179.243454	-1280.809191	661.183148	451.860854	-1231.073418	615.035559	441.079750	-1200.607401	620.580206	427.495279	-1248.000526	533.874261	424.452173	-1256.438302	443.569399	391.086806	-1367.386095	405.838616	341.346860	-1436.947263	476.846728	385.901469	-1445.891841	438.152879	363.131830	-1493.086808	439.488406	332.908761	-1649.648710	530.088048	338.260410	-1687.886047	585.681572	288.861799	-1710.078093	362.305406	265.136785	-1701.298350	360.996190	309.468266	-1720.514538	401.173532	362.127447	
910	4.545000	-978.431171	1738.182654	332.803039	-1128.384899	1729.055896	221.327883	-1124.004405	1711.405240	372.652053	-1177.909406	1548.484431	303.892908	-1309.861444	1225.146090	336.426721	-1051.597218	1435.755189	284.083295	-1091.455005	1546.666023	138.382847	-1143.135725	1352.022059	11.819187	-1107.068183	1320.509874	23.158060	-1149.187780	1283.620102	-0.944505	-1140.890751	1193.170659	-13.394347	-1186.475257	1175.593139	58.351299	-939.260322	1050.108840	111.988674	-951.029113	1008.129165	48.128273	-862.874464	1013.647905	118.653689	-1071.693686	1488.089606	464.002877	-1248.637445	1341.146202	560.232299	-1223.339139	1298.354936	566.517289	-1278.347224	1279.944218	574.009700	-1310.918102	1216.586064	587.494348	-1334.725345	1199.242294	507.609104	-1169.478617	975.343893	546.371432	-1208.969328	946.206362	608.725006	-1127.621770	896.289787	554.298757	-1249.157055	1003.868365	172.223688	-1204.132622	962.250571	398.454272	-1367.329835	1103.330010	341.990398	-1393.439907	1080.822292	316.081616	-1377.764938	1071.478076	370.130846	-1296.147280	762.802595	104.286437	-1229.378541	707.983209	101.009087	-1187.204017	726.164614	108.476463	-1234.470315	648.643322	106.256446	-1180.721431	498.874896	116.643506	-1211.453769	316.728191	191.935361	-1249.462428	283.457973	123.062472	-1225.208081	269.345496	160.011427	-1265.288949	202.890853	193.812990	-1426.743232	51.346567	209.773449	-1215.207406	51.428340	233.507646	-1239.767526	37.231322	132.166126	-1202.172142	51.326126	179.338195	-1238.339579	663.724279	451.385491	-1186.390187	620.221690	440.346077	-1156.485492	627.125665	426.059536	-1199.357858	538.112535	424.365698	-1203.783950	447.793009	390.452396	-1313.835237	406.701241	341.046471	-1384.829111	475.758106	386.283681	-1392.928912	436.793718	363.891307	-1440.402479	436.717545	333.607111	-1599.419393	521.825416	339.845559	-1640.703384	576.118714	291.018265	-1653.417704	352.306439	266.625437	-1643.923435	351.126147	310.821738	-1664.467769	390.184381	363.902160	
911	4.550000	-951.645969	1737.980357	332.359037	-1100.938603	1728.460730	220.016263	-1097.499219	1710.768878	371.301421	-1150.061858	1547.389338	301.567682	-1280.130081	1223.276270	335.088914	-1022.635824	1434.741616	284.528872	-1060.921401	1545.815716	138.343016	-1105.921456	1349.257783	13.137829	-1069.345504	1318.713014	25.814111	-1109.993298	1280.502953	1.136321	-1098.690863	1190.004663	-9.645749	-1146.288526	1172.059636	61.085116	-896.728876	1056.826099	125.208193	-904.541324	1013.244828	61.791332	-819.021028	1023.635917	134.985822	-1046.939327	1488.073371	464.652741	-1228.975339	1345.225587	557.188919	-1204.595675	1302.299637	566.128700	-1260.120489	1285.024120	572.002455	-1294.519769	1222.827075	586.231843	-1315.279634	1203.234947	506.289123	-1159.301115	975.977326	559.519654	-1202.039405	950.349510	621.253945	-1120.789857	895.553165	571.105693	-1221.149297	1002.026758	169.831598	-1174.247746	959.991984	395.953121	-1337.553825	1102.499899	341.379129	-1363.828747	1080.165379	315.622596	-1347.875286	1070.720361	369.550499	-1274.632595	759.863896	103.543641	-1209.920262	703.069455	99.110704	-1167.247348	719.662360	105.975078	-1216.864793	643.812669	105.055413	-1167.201144	492.290194	114.858229	-1203.335371	311.462613	190.720625	-1243.279079	279.560787	122.131643	-1219.294602	264.695778	158.961522	-1261.546679	199.713179	193.116398	-1426.914927	51.726634	210.215461	-1215.439732	51.603615	233.684411	-1240.000030	37.415488	132.204602	-1202.451195	51.308504	179.439202	-1196.030088	667.262056	450.840756	-1141.945487	626.556575	439.559153	-1112.671316	634.850271	424.584974	-1150.823159	543.732658	424.240044	-1151.268704	453.376749	389.776505	-1260.178578	408.244236	340.730113	-1332.918591	474.980054	386.564598	-1339.956265	435.688969	364.573038	-1387.614541	433.859835	334.210281	-1549.446187	512.540519	341.300030	-1593.793981	565.176881	293.011212	-1595.887864	341.294048	268.026683	-1585.855364	340.341955	312.070957	-1608.001968	378.166160	365.485067	
912	4.555000	-924.858953	1738.090272	332.032111	-1073.568672	1728.109080	218.933453	-1070.929757	1710.370604	370.174771	-1122.078749	1546.605568	299.441158	-1250.071166	1221.769532	333.771252	-993.616481	1434.260179	285.089058	-1030.263649	1545.485574	138.624161	-1068.972933	1347.292017	14.691544	-1031.938534	1317.692851	28.572183	-1071.256854	1278.247907	3.511317	-1056.919451	1187.863404	-5.605277	-1106.402266	1169.629660	64.185837	-855.173861	1064.764253	138.456286	-859.073748	1019.763804	75.651946	-776.382058	1034.878355	151.326214	-1022.130525	1488.395390	465.347454	-1209.070858	1349.775015	554.004638	-1185.746757	1306.828430	565.599492	-1241.733426	1290.682862	569.759889	-1277.968927	1229.731669	584.749880	-1295.668000	1207.777599	505.017451	-1149.016341	978.320716	572.375682	-1194.932242	956.107789	633.097874	-1113.818822	896.911449	587.578515	-1192.817260	1000.286631	167.374689	-1144.224816	957.974695	393.431646	-1307.625639	1101.761943	340.664874	-1334.038262	1079.540283	315.127822	-1317.821286	1070.078386	368.936339	-1253.308740	756.833605	102.914637	-1190.946141	697.934764	97.292205	-1147.743503	712.697404	103.589601	-1199.897264	638.827150	104.054361	-1154.895819	485.467303	113.229973	-1196.018244	306.206245	189.553182	-1237.891335	275.700300	121.282058	-1214.115913	260.131105	157.909012	-1258.305738	196.608909	192.450698	-1427.115642	52.175909	210.646949	-1215.637853	51.874884	233.815359	-1240.215193	37.613525	132.285013	-1202.728986	51.401435	179.532834	-1154.026349	671.743667	450.226656	-1097.910388	633.959386	438.731169	-1069.328094	643.660349	423.114818	-1102.604669	550.672035	424.041520	-1099.081674	460.250446	389.068407	-1206.536806	410.465912	340.387199	-1281.313398	474.472963	386.725572	-1287.060704	434.836518	365.133520	-1334.775089	430.942540	334.685235	-1499.646631	502.313066	342.576966	-1547.034204	552.906004	294.768390	-1537.472249	329.435643	269.343083	-1527.085678	328.824399	313.226165	-1551.059758	365.305345	366.874901	
